<svg xmlns="http://www.w3.org/2000/svg" viewBox="0 0 64 64" width="64" height="64">
  <circle cx="32" cy="32" r="30" fill="none" stroke="#0D3B43" stroke-width="4"/>
  <path d="M32 12 C32 12, 44 24, 44 36 C44 42.6 38.6 48 32 48 C25.4 48 20 42.6 20 36 C20 24, 32 12, 32 12 Z" fill="#0D3B43" opacity="0.15"/>
  <rect x="28" y="16" width="8" height="32" rx="4" fill="#47391B" />
  <rect x="16" y="28" width="32" height="8" rx="4" fill="#47391B" />
  <path d="M32 20 C36 24 40 30 38 36 C36 40 32 42 32 42 C32 42 28 40 26 36 C24 30 28 24 32 20 Z" fill="#0D3B43"/>
</svg>
